<svg xmlns="http://www.w3.org/2000/svg" viewBox="0 0 256 256" stroke-linecap="round" stroke-linejoin="round" style="color-scheme: dark light;">
	<symbol id="clef" viewBox="-16 -32 32 64">
		<path d="
			M1,1
			A2,2,0,0,1,-1,-1
			A4,4,0,0,1,3,-5
			A6,6,0,0,1,9,1
			A8,8,0,0,1,1,9
			A10,10,0,0,1,-9,-1
			A12,12,0,0,1,3,-13
			A6,6,0,0,0,9,-19
			A12,12,0,0,0,6,-26.94
			A12,12,0,0,0,3,-19
			L3,21
			A6,6,0,0,1,-3,27
			A4,4,0,0,1,-7,23
			A2,2,0,0,1,-5,21
		" />
	</symbol>
	<circle cx="128" cy="128" r="128" fill="canvas" />
	<use href="#clef" x="64" y="0" width="128" height="256" fill="none" stroke="canvasText" stroke-width="3" />
</svg>
